<svg width="23" height="26" viewBox="0 0 23 26" fill="none" xmlns="http://www.w3.org/2000/svg">
<path d="M22 16.5L22 22C22 23.6569 20.6569 25 19 25L14 25" stroke="#5EA73C" stroke-width="2" stroke-linecap="round"/>
<path d="M13.5 5L19 5C20.6569 5 22 6.34315 22 8L22 13" stroke="#5EA73C" stroke-width="2" stroke-linecap="round"/>
<path d="M1.5 13.5L1.5 8C1.5 6.34315 2.84315 5 4.5 5L9.5 5" stroke="#5EA73C" stroke-width="2" stroke-linecap="round"/>
<path d="M10 25L4.5 25C2.84315 25 1.5 23.6569 1.5 22L1.5 17" stroke="#5EA73C" stroke-width="2" stroke-linecap="round"/>
<rect x="17" y="21" width="4" height="4" transform="rotate(-180 17 21)" stroke="#5EA73C" stroke-width="2" stroke-linejoin="round"/>
<rect x="17" y="13" width="4" height="4" transform="rotate(-180 17 13)" stroke="#5EA73C" stroke-width="2" stroke-linejoin="round"/>
<rect x="10" y="21" width="4" height="4" transform="rotate(-180 10 21)" stroke="#5EA73C" stroke-width="2" stroke-linejoin="round"/>
<rect x="10" y="13" width="4" height="4" transform="rotate(-180 10 13)" stroke="#5EA73C" stroke-width="2" stroke-linejoin="round"/>
</svg>
