<svg width="16" height="15" viewBox="0 0 16 15" fill="none" xmlns="http://www.w3.org/2000/svg">
<path d="M7.9999 0.171021C6.55036 0.171021 5.13338 0.600859 3.92813 1.40618C2.72288 2.2115 1.7835 3.35613 1.22879 4.69533C0.674074 6.03453 0.528935 7.50815 0.811726 8.92984C1.09452 10.3515 1.79254 11.6574 2.81752 12.6824C3.8425 13.7074 5.1484 14.4054 6.57009 14.6882C7.99177 14.971 9.46539 14.8258 10.8046 14.2711C12.1438 13.7164 13.2884 12.777 14.0937 11.5718C14.8991 10.3665 15.3289 8.94956 15.3289 7.50002C15.3291 6.53751 15.1397 5.58438 14.7714 4.6951C14.4032 3.80582 13.8633 2.9978 13.1827 2.3172C12.5021 1.6366 11.6941 1.09675 10.8048 0.728506C9.91554 0.360259 8.96242 0.170824 7.9999 0.171021ZM11.9899 5.52152L7.0594 11.7135L4.0594 8.71352C3.9915 8.65515 3.93639 8.58336 3.89756 8.50268C3.85872 8.42199 3.83699 8.33414 3.83372 8.24465C3.83046 8.15516 3.84574 8.06597 3.8786 7.98267C3.91145 7.89936 3.96118 7.82376 4.02466 7.76059C4.08813 7.69743 4.16398 7.64807 4.24744 7.61562C4.33091 7.58318 4.42018 7.56834 4.50965 7.57204C4.59912 7.57574 4.68686 7.59791 4.76735 7.63714C4.84785 7.67637 4.91936 7.73183 4.9774 7.80002L6.9499 9.76652L10.9744 4.71302C11.0262 4.64261 11.0916 4.58337 11.1668 4.53885C11.242 4.49433 11.3254 4.46545 11.4121 4.45393C11.4987 4.44241 11.5868 4.44849 11.671 4.4718C11.7552 4.49512 11.8339 4.5352 11.9022 4.58963C11.9706 4.64407 12.0273 4.71174 12.0689 4.7886C12.1105 4.86545 12.1361 4.94992 12.1443 5.03693C12.1525 5.12393 12.1431 5.2117 12.1165 5.29497C12.09 5.37824 12.0469 5.45529 11.9899 5.52152Z" fill="#5EA73C"/>
</svg>
