<svg width="25" height="25" viewBox="0 0 25 25" fill="none" xmlns="http://www.w3.org/2000/svg">
<path d="M14.11 3.27148H6.16448C5.78455 3.27142 5.40833 3.3462 5.0573 3.49157C4.70628 3.63693 4.38733 3.85002 4.11868 4.11868C3.85002 4.38733 3.63693 4.70628 3.49157 5.0573C3.3462 5.40833 3.27142 5.78455 3.27148 6.16448V18.8355C3.27142 19.2154 3.3462 19.5916 3.49157 19.9427C3.63693 20.2937 3.85002 20.6126 4.11868 20.8813C4.38733 21.1499 4.70628 21.363 5.0573 21.5084C5.40833 21.6538 5.78455 21.7286 6.16448 21.7285H18.8355C19.2154 21.7286 19.5916 21.6538 19.9427 21.5084C20.2937 21.363 20.6126 21.1499 20.8813 20.8813C21.1499 20.6126 21.363 20.2937 21.5084 19.9427C21.6538 19.5916 21.7286 19.2154 21.7285 18.8355V11.553" stroke="#5EA73C" stroke-width="2" stroke-linecap="round" stroke-linejoin="round"/>
<path d="M12.0524 15.9785L9.06592 16.35L9.43642 13.363L19.6864 3.11299C20.0333 2.76629 20.5037 2.57153 20.9942 2.57153C21.4846 2.57153 21.955 2.76629 22.3019 3.11299V3.11299C22.6486 3.4599 22.8434 3.93028 22.8434 4.42074C22.8434 4.91119 22.6486 5.38158 22.3019 5.72849L12.0524 15.9785Z" stroke="#5EA73C" stroke-width="2" stroke-linecap="round" stroke-linejoin="round"/>
<path d="M17.894 4.90552L20.51 7.52102" stroke="#5EA73C" stroke-width="2" stroke-linecap="round" stroke-linejoin="round"/>
</svg>
