<svg width="25" height="25" viewBox="0 0 25 25" fill="none" xmlns="http://www.w3.org/2000/svg">
<path d="M18.0595 1.0865H7.19401C5.09754 1.0865 3.39801 2.78603 3.39801 4.8825V20.096C3.39801 22.1925 5.09754 23.892 7.19401 23.892H18.0595C20.156 23.892 21.8555 22.1925 21.8555 20.096V4.8825C21.8555 2.78603 20.156 1.0865 18.0595 1.0865Z" stroke="#5BA545" stroke-width="2" stroke-linecap="round" stroke-linejoin="round"/>
<path d="M3.39801 16.3675H21.8555" stroke="#5BA545" stroke-width="2" stroke-linecap="round" stroke-linejoin="round"/>
<path d="M8.4945 21.1325C9.11003 21.1325 9.609 20.6335 9.609 20.018C9.609 19.4025 9.11003 18.9035 8.4945 18.9035C7.87898 18.9035 7.38 19.4025 7.38 20.018C7.38 20.6335 7.87898 21.1325 8.4945 21.1325Z" fill="#5BA545"/>
<path d="M12.6265 21.1325C13.242 21.1325 13.741 20.6335 13.741 20.018C13.741 19.4025 13.242 18.9035 12.6265 18.9035C12.011 18.9035 11.512 19.4025 11.512 20.018C11.512 20.6335 12.011 21.1325 12.6265 21.1325Z" fill="#5BA545"/>
<path d="M16.759 21.1325C17.3746 21.1325 17.8735 20.6335 17.8735 20.018C17.8735 19.4025 17.3746 18.9035 16.759 18.9035C16.1435 18.9035 15.6445 19.4025 15.6445 20.018C15.6445 20.6335 16.1435 21.1325 16.759 21.1325Z" fill="#5BA545"/>
<path d="M10.227 11.877C12.777 11.877 13.167 8.717 11.998 7.132C11.0215 5.809 8.34052 5.9365 8.34052 7.692C8.34052 9.675 11.6405 9.333 12.5405 8.365" stroke="#5BA545" stroke-width="2" stroke-linecap="round" stroke-linejoin="round"/>
<path d="M15.0265 11.877C12.4765 11.877 12.0865 8.717 13.2555 7.132C14.232 5.809 16.913 5.9365 16.913 7.692C16.913 9.675 13.613 9.333 12.713 8.365" stroke="#5BA545" stroke-width="2" stroke-linecap="round" stroke-linejoin="round"/>
</svg>
