<svg width="25" height="25" viewBox="0 0 25 25" fill="none" xmlns="http://www.w3.org/2000/svg">
<path d="M18.0599 1.08691H7.19444C5.09796 1.08691 3.39844 2.78644 3.39844 4.88291V20.0964C3.39844 22.1929 5.09796 23.8924 7.19444 23.8924H18.0599C20.1564 23.8924 21.8559 22.1929 21.8559 20.0964V4.88291C21.8559 2.78644 20.1564 1.08691 18.0599 1.08691Z" stroke="#96B3C4" stroke-width="2" stroke-linecap="round" stroke-linejoin="round"/>
<path d="M3.39844 16.3672H21.8559" stroke="#96B3C4" stroke-width="2" stroke-linecap="round" stroke-linejoin="round"/>
<path d="M8.49438 21.1323C9.1099 21.1323 9.60888 20.6333 9.60888 20.0178C9.60888 19.4023 9.1099 18.9033 8.49438 18.9033C7.87886 18.9033 7.37988 19.4023 7.37988 20.0178C7.37988 20.6333 7.87886 21.1323 8.49438 21.1323Z" fill="#96B3C4"/>
<path d="M12.6262 21.1323C13.2417 21.1323 13.7407 20.6333 13.7407 20.0178C13.7407 19.4023 13.2417 18.9033 12.6262 18.9033C12.0107 18.9033 11.5117 19.4023 11.5117 20.0178C11.5117 20.6333 12.0107 21.1323 12.6262 21.1323Z" fill="#96B3C4"/>
<path d="M16.759 21.1323C17.3746 21.1323 17.8735 20.6333 17.8735 20.0178C17.8735 19.4023 17.3746 18.9033 16.759 18.9033C16.1435 18.9033 15.6445 19.4023 15.6445 20.0178C15.6445 20.6333 16.1435 21.1323 16.759 21.1323Z" fill="#96B3C4"/>
<path d="M10.2273 11.877C12.7773 11.877 13.1673 8.71703 11.9983 7.13203C11.0218 5.80903 8.34082 5.93653 8.34082 7.69203C8.34082 9.67503 11.6408 9.33303 12.5408 8.36503" stroke="#96B3C4" stroke-width="2" stroke-linecap="round" stroke-linejoin="round"/>
<path d="M15.0267 11.877C12.4767 11.877 12.0867 8.71703 13.2557 7.13203C14.2322 5.80903 16.9132 5.93653 16.9132 7.69203C16.9132 9.67503 13.6132 9.33303 12.7132 8.36503" stroke="#96B3C4" stroke-width="2" stroke-linecap="round" stroke-linejoin="round"/>
</svg>
