<svg width="25" height="25" viewBox="0 0 25 25" fill="none" xmlns="http://www.w3.org/2000/svg">
<path d="M3.27148 1.08594H18.606C19.4341 1.08594 20.2283 1.41491 20.8139 2.0005C21.3995 2.58608 21.7285 3.3803 21.7285 4.20844V20.7684C21.7285 21.5966 21.3995 22.3908 20.8139 22.9764C20.2283 23.562 19.4341 23.8909 18.606 23.8909H3.27148V1.08594Z" stroke="#5EA73C" stroke-width="2" stroke-linecap="round" stroke-linejoin="round"/>
<path d="M12.2702 9.06055H13.1997C14.1901 9.06055 15.14 9.454 15.8404 10.1544C16.5407 10.8547 16.9342 11.8046 16.9342 12.795V13.5505H8.53418V12.795C8.53418 12.3045 8.63083 11.8188 8.8186 11.3656C9.00637 10.9124 9.28158 10.5006 9.62852 10.1538C9.97546 9.80703 10.3873 9.53198 10.8406 9.34439C11.2939 9.1568 11.7796 9.06035 12.2702 9.06055V9.06055Z" stroke="#5EA73C" stroke-width="2" stroke-linecap="round" stroke-linejoin="round"/>
<path d="M7.8916 16.0684H17.5806" stroke="#5EA73C" stroke-width="2" stroke-linecap="round" stroke-linejoin="round"/>
<path d="M12.7363 9.05942V6.98242" stroke="#5EA73C" stroke-width="2" stroke-linecap="round" stroke-linejoin="round"/>
</svg>
