<svg width="25" height="25" viewBox="0 0 25 25" fill="none" xmlns="http://www.w3.org/2000/svg">
<path d="M3.27148 1.08691H18.606C19.4341 1.08691 20.2283 1.41589 20.8139 2.00147C21.3995 2.58706 21.7285 3.38128 21.7285 4.20941V20.7694C21.7285 21.5976 21.3995 22.3918 20.8139 22.9774C20.2283 23.5629 19.4341 23.8919 18.606 23.8919H3.27148V1.08691Z" stroke="#96B3C4" stroke-width="2" stroke-linecap="round" stroke-linejoin="round"/>
<path d="M12.2702 9.05957H13.1997C14.1901 9.05957 15.14 9.45303 15.8404 10.1534C16.5407 10.8537 16.9342 11.8036 16.9342 12.7941V13.5496H8.53418V12.7941C8.53418 12.3035 8.63083 11.8178 8.8186 11.3646C9.00637 10.9114 9.28158 10.4996 9.62852 10.1528C9.97546 9.80605 10.3873 9.531 10.8406 9.34341C11.2939 9.15582 11.7796 9.05937 12.2702 9.05957V9.05957Z" stroke="#96B3C4" stroke-width="2" stroke-linecap="round" stroke-linejoin="round"/>
<path d="M7.8916 16.0674H17.5806" stroke="#96B3C4" stroke-width="2" stroke-linecap="round" stroke-linejoin="round"/>
<path d="M12.7363 9.0604V6.9834" stroke="#96B3C4" stroke-width="2" stroke-linecap="round" stroke-linejoin="round"/>
</svg>
