<svg width="32" height="32" viewBox="0 0 32 32" fill="none" xmlns="http://www.w3.org/2000/svg">
<path d="M4.18753 1.39075H23.8157C24.8757 1.39075 25.8923 1.81184 26.6419 2.56138C27.3914 3.31093 27.8125 4.32753 27.8125 5.38755V26.5843C27.8125 27.6444 27.3914 28.661 26.6419 29.4105C25.8923 30.1601 24.8757 30.5811 23.8157 30.5811H4.18753V1.39075Z" stroke="#BF0000" stroke-width="2" stroke-linecap="round" stroke-linejoin="round"/>
<path d="M15.7062 11.5968H16.896C18.1638 11.5968 19.3796 12.1004 20.2761 12.9969C21.1725 13.8933 21.6762 15.1092 21.6762 16.377V17.344H10.9242V16.377C10.9242 15.7491 11.0479 15.1273 11.2882 14.5472C11.5286 13.9671 11.8808 13.4401 12.3249 12.9962C12.769 12.5523 13.2962 12.2002 13.8764 11.9601C14.4565 11.72 15.0783 11.5965 15.7062 11.5968V11.5968Z" stroke="#BF0000" stroke-width="2" stroke-linecap="round" stroke-linejoin="round"/>
<path d="M10.1017 20.5664H22.5037" stroke="#BF0000" stroke-width="2" stroke-linecap="round" stroke-linejoin="round"/>
<path d="M16.3027 11.5968V8.93823" stroke="#BF0000" stroke-width="2" stroke-linecap="round" stroke-linejoin="round"/>
</svg>
