<svg width="32" height="32" viewBox="0 0 32 32" fill="none" xmlns="http://www.w3.org/2000/svg">
<path d="M16.2228 5.29004C17.1239 5.29004 18.0162 5.46754 18.8487 5.8124C19.6812 6.15726 20.4376 6.66272 21.0748 7.29993C21.7119 7.93715 22.2173 8.69362 22.5621 9.52616C22.9069 10.3587 23.0843 11.251 23.0842 12.1521V19.0136H9.36133V12.1521C9.36124 11.251 9.53866 10.3587 9.88344 9.52616C10.2282 8.69362 10.7336 7.93715 11.3708 7.29993C12.0079 6.66272 12.7644 6.15726 13.5969 5.8124C14.4294 5.46754 15.3217 5.29004 16.2228 5.29004V5.29004Z" stroke="#6F8998" stroke-width="2.5" stroke-linecap="round" stroke-linejoin="round"/>
<path d="M10.6881 19.0127H21.7562C22.2923 19.0127 22.8231 19.1183 23.3183 19.3234C23.8135 19.5285 24.2635 19.8292 24.6426 20.2083C25.0216 20.5873 25.3223 21.0373 25.5274 21.5325C25.7326 22.0278 25.8381 22.5586 25.8381 23.0946V25.4684H6.60742V23.094C6.60759 22.0117 7.03755 20.9738 7.80276 20.2085C8.56798 19.4432 9.6058 19.013 10.6881 19.0127Z" stroke="#6F8998" stroke-width="2.5" stroke-linecap="round" stroke-linejoin="round"/>
<path d="M16.2227 28.5807C17.0482 28.5806 17.8398 28.2525 18.4235 27.6687C19.0071 27.085 19.335 26.2933 19.335 25.4678H13.1104C13.1104 26.2933 13.4382 27.085 14.0219 27.6687C14.6055 28.2525 15.3972 28.5806 16.2227 28.5807V28.5807Z" stroke="#6F8998" stroke-width="2.5" stroke-linecap="round" stroke-linejoin="round"/>
<path d="M16.2227 5.28919V2.59863" stroke="#6F8998" stroke-width="2.5" stroke-linecap="round" stroke-linejoin="round"/>
</svg>
