<svg width="32" height="32" viewBox="0 0 32 32" fill="none" xmlns="http://www.w3.org/2000/svg">
<path d="M30.3258 11.0765H24.9382V1.39072H26.2854C27.4719 1.39072 28.6098 1.86204 29.4487 2.701C30.2877 3.53997 30.759 4.67784 30.759 5.86432V10.6432C30.759 10.7581 30.7134 10.8683 30.6321 10.9496C30.5509 11.0308 30.4407 11.0765 30.3258 11.0765V11.0765Z" stroke="#BF0000" stroke-width="2" stroke-linecap="round" stroke-linejoin="round"/>
<path d="M1.31262 5.49952V30.3002C1.31262 30.6547 1.82014 30.832 2.1171 30.5818L5.17246 28.0051C5.26705 27.9296 5.38452 27.8884 5.50558 27.8884C5.62664 27.8884 5.74411 27.9296 5.8387 28.0051L8.98174 30.656C9.07648 30.7315 9.19404 30.7726 9.31518 30.7726C9.43633 30.7726 9.55388 30.7315 9.64862 30.656L12.7917 28.0051C12.8864 27.9296 13.004 27.8885 13.1251 27.8885C13.2462 27.8885 13.3638 27.9296 13.4585 28.0051L16.6016 30.656C16.6963 30.7315 16.8139 30.7726 16.935 30.7726C17.0562 30.7726 17.1737 30.7315 17.2685 30.656L20.4115 28.0051C20.5062 27.9296 20.6238 27.8885 20.7449 27.8885C20.8661 27.8885 20.9836 27.9296 21.0784 28.0051L24.1331 30.5818C24.4301 30.832 24.9382 30.6547 24.9382 30.3002V1.39072H6.18622C3.4931 1.39072 1.31262 3.23072 1.31262 5.49952Z" stroke="#BF0000" stroke-width="2" stroke-linecap="round" stroke-linejoin="round"/>
<path d="M5.38049 10.2413H20.1639" stroke="#BF0000" stroke-width="2" stroke-linecap="round" stroke-linejoin="round"/>
<path d="M5.38049 15.6928H20.1639" stroke="#BF0000" stroke-width="2" stroke-linecap="round" stroke-linejoin="round"/>
<path d="M5.38049 21.1437H20.1639" stroke="#BF0000" stroke-width="2" stroke-linecap="round" stroke-linejoin="round"/>
</svg>
