<svg width="25" height="25" viewBox="0 0 25 25" fill="none" xmlns="http://www.w3.org/2000/svg">
<g clip-path="url(#clip0_25_5140)">
<path d="M23.6918 8.65332H19.4828V1.08632L20.5353 1.08632C21.4622 1.08632 22.3512 1.45454 23.0066 2.10998C23.6621 2.76542 24.0303 3.65439 24.0303 4.58132V8.31482C24.0303 8.4046 23.9946 8.49069 23.9311 8.55418C23.8676 8.61766 23.7815 8.65332 23.6918 8.65332V8.65332Z" stroke="#5EA73C" stroke-width="2" stroke-linecap="round" stroke-linejoin="round"/>
<path d="M1.02539 4.29691V23.6724C1.02539 23.9494 1.42189 24.0879 1.65389 23.8924L4.04089 21.8794C4.11479 21.8204 4.20656 21.7882 4.30114 21.7882C4.39572 21.7882 4.48749 21.8204 4.56139 21.8794L7.01689 23.9504C7.09091 24.0094 7.18275 24.0415 7.27739 24.0415C7.37203 24.0415 7.46387 24.0094 7.53789 23.9504L9.99339 21.8794C10.0674 21.8204 10.1592 21.7883 10.2539 21.7883C10.3485 21.7883 10.4404 21.8204 10.5144 21.8794L12.9699 23.9504C13.0439 24.0094 13.1357 24.0415 13.2304 24.0415C13.325 24.0415 13.4169 24.0094 13.4909 23.9504L15.9464 21.8794C16.0204 21.8204 16.1122 21.7883 16.2069 21.7883C16.3015 21.7883 16.3934 21.8204 16.4674 21.8794L18.8539 23.8924C19.0859 24.0879 19.4829 23.9494 19.4829 23.6724V1.08691H4.83289C2.72889 1.08691 1.02539 2.52441 1.02539 4.29691Z" stroke="#5EA73C" stroke-width="2" stroke-linecap="round" stroke-linejoin="round"/>
<path d="M4.20312 8.00098H15.7526" stroke="#5EA73C" stroke-width="2" stroke-linecap="round" stroke-linejoin="round"/>
<path d="M4.20312 12.2598H15.7526" stroke="#5EA73C" stroke-width="2" stroke-linecap="round" stroke-linejoin="round"/>
<path d="M4.20312 16.5186H15.7526" stroke="#5EA73C" stroke-width="2" stroke-linecap="round" stroke-linejoin="round"/>
</g>
<defs>
<clipPath id="clip0_25_5140">
<rect width="25" height="25" fill="white"/>
</clipPath>
</defs>
</svg>
