<svg width="25" height="25" viewBox="0 0 25 25" fill="none" xmlns="http://www.w3.org/2000/svg">
<g clip-path="url(#clip0_46_6491)">
<path d="M23.692 8.6535H19.483V1.0865L20.5355 1.0865C21.4624 1.0865 22.3514 1.45473 23.0069 2.11017C23.6623 2.7656 24.0305 3.65457 24.0305 4.5815V8.315C24.0305 8.40478 23.9949 8.49088 23.9314 8.55436C23.8679 8.61784 23.7818 8.6535 23.692 8.6535V8.6535Z" stroke="#96B3C4" stroke-width="2" stroke-linecap="round" stroke-linejoin="round"/>
<path d="M1.02551 4.29649V23.672C1.02551 23.949 1.42201 24.0875 1.65401 23.892L4.04101 21.879C4.11491 21.82 4.20668 21.7878 4.30126 21.7878C4.39584 21.7878 4.48761 21.82 4.56151 21.879L7.01701 23.95C7.09103 24.009 7.18287 24.0411 7.27751 24.0411C7.37216 24.0411 7.464 24.009 7.53801 23.95L9.99351 21.879C10.0675 21.82 10.1594 21.7879 10.254 21.7879C10.3487 21.7879 10.4405 21.82 10.5145 21.879L12.97 23.95C13.044 24.009 13.1359 24.0411 13.2305 24.0411C13.3252 24.0411 13.417 24.009 13.491 23.95L15.9465 21.879C16.0205 21.82 16.1124 21.7879 16.207 21.7879C16.3017 21.7879 16.3935 21.82 16.4675 21.879L18.854 23.892C19.086 24.0875 19.483 23.949 19.483 23.672V1.08649H4.83301C2.72901 1.08649 1.02551 2.52399 1.02551 4.29649Z" stroke="#96B3C4" stroke-width="2" stroke-linecap="round" stroke-linejoin="round"/>
<path d="M4.20349 8.00101H15.753" stroke="#96B3C4" stroke-width="2" stroke-linecap="round" stroke-linejoin="round"/>
<path d="M4.20349 12.26H15.753" stroke="#96B3C4" stroke-width="2" stroke-linecap="round" stroke-linejoin="round"/>
<path d="M4.20349 16.5185H15.753" stroke="#96B3C4" stroke-width="2" stroke-linecap="round" stroke-linejoin="round"/>
</g>
<defs>
<clipPath id="clip0_46_6491">
<rect width="25" height="25" fill="white"/>
</clipPath>
</defs>
</svg>
